<?xml version="1.0" encoding="UTF-8" standalone="no"?>
<!DOCTYPE svg PUBLIC "-//W3C//DTD SVG 1.1//EN"
 "http://www.w3.org/Graphics/SVG/1.1/DTD/svg11.dtd">
<!-- Generated by graphviz version 2.38.0 (20140413.2041)
 -->
<!-- Title: G Pages: 1 -->
<svg width="1314pt" height="861pt"
 viewBox="0.00 0.00 1314.30 861.38" xmlns="http://www.w3.org/2000/svg" xmlns:xlink="http://www.w3.org/1999/xlink">
<g id="graph0" class="graph" transform="scale(1 1) rotate(0) translate(4 857.382)">
<script type='text/javascript'>
  <![CDATA[

var windows = new Array()
var info = new Array()

function openWin(target, time) {
  win = window.open(target + "_" + time + ".html", target, "location=no,width=400,height=180,left=0,status=no");
  // hm, an associative array, how strange.
  info[target] = 1
}

function advanceTo(time) {
  arr = gup("wins").split(",");
  for (i=0; i < arr.length; i++) {
    if (arr[i] != "") {
      openWin(arr[i], time);
    }
  }
  str = '';
  // getting 'key_cols'
  for (var i in info) {
    str = str + ',' + i;
  }
  self.window.location.href = 'tm_' + time + '.svg?wins=' + str;
}

// off the netz
function gup(name) {
  name = name.replace(/[[]/,"\[").replace(/[]]/,"\]");
  var regexS = "[\?&]"+name+"=([^&#]*)";
  var regex = new RegExp(regexS);
  var results = regex.exec(window.location.href);
  if (results == null)
    return "";
  else
    return results[1];
}

  ]]>
</script>

<polygon fill="white" stroke="none" points="-4,4 -4,-857.382 1310.3,-857.382 1310.3,4 -4,4"/>
<!-- proto.network.messages -->
<g id="node1" class="node"><title>proto.network.messages</title>
<g id="a_node1"><a xlink:href="proto.network.messages.html" xlink:title="proto.network.messages">
<polygon fill="none" stroke="black" points="190,-758.583 0,-758.583 0,-722.583 190,-722.583 190,-758.583"/>
<text text-anchor="middle" x="95" y="-736.183" font-family="Times New Roman,serif" font-size="18.00">proto.network.messages</text>
</a>
</g>
</g>
<!-- proto.network.msg_send -->
<g id="node3" class="node"><title>proto.network.msg_send</title>
<g id="a_node3"><a xlink:href="proto.network.msg_send.html" xlink:title="proto.network.msg_send">
<ellipse fill="none" stroke="black" cx="336" cy="-625.387" rx="137.358" ry="19.6"/>
<text text-anchor="middle" x="336" y="-620.987" font-family="Times New Roman,serif" font-size="18.00">proto.network.msg_send</text>
</a>
</g>
</g>
<!-- proto.network.messages&#45;&gt;proto.network.msg_send -->
<g id="edge3" class="edge"><title>proto.network.messages&#45;&gt;proto.network.msg_send</title>
<g id="a_edge3"><a xlink:href="1-proto.network.msg_send.html">
<path fill="none" stroke="black" stroke-width="5" stroke-dasharray="5,2" d="M131.341,-722.514C170.548,-704.098 233.497,-674.532 279.24,-653.047"/>
<polygon fill="black" stroke="black" stroke-width="5" points="282.982,-660.956 297.365,-644.534 275.542,-645.116 282.982,-660.956"/>
</a>
</g>
</g>
<!-- proto.network.push -->
<g id="node2" class="node"><title>proto.network.push</title>
<g id="a_node2"><a xlink:href="proto.network.push.html" xlink:title="proto.network.push">
<ellipse fill="none" stroke="black" cx="737" cy="-19.799" rx="111.032" ry="19.6"/>
<text text-anchor="middle" x="737" y="-15.399" font-family="Times New Roman,serif" font-size="18.00">proto.network.push</text>
</a>
</g>
</g>
<!-- proto.network.push&#45;&gt;proto.network.messages -->
<g id="edge1" class="edge"><title>proto.network.push&#45;&gt;proto.network.messages</title>
<g id="a_edge1"><a xlink:href="0-proto.network.messages.html">
<path fill="none" stroke="black" stroke-width="5" d="M626.233,-21.8423C433.547,-25.1452 57,-38.8357 57,-95.397 57,-626.387 57,-626.387 57,-626.387 57,-653.546 66.9529,-682.554 76.6713,-704.406"/>
<polygon fill="black" stroke="black" stroke-width="5" points="68.8441,-708.319 85.411,-722.535 84.6081,-700.72 68.8441,-708.319"/>
</a>
</g>
</g>
<!-- proto.network.msg_confirm -->
<g id="node6" class="node"><title>proto.network.msg_confirm</title>
<g id="a_node6"><a xlink:href="proto.network.msg_confirm.html" xlink:title="proto.network.msg_confirm">
<ellipse fill="none" stroke="black" cx="276" cy="-513.789" rx="153.384" ry="19.6"/>
<text text-anchor="middle" x="276" y="-509.389" font-family="Times New Roman,serif" font-size="18.00">proto.network.msg_confirm</text>
</a>
</g>
</g>
<!-- proto.network.msg_send&#45;&gt;proto.network.msg_confirm -->
<g id="edge7" class="edge"><title>proto.network.msg_send&#45;&gt;proto.network.msg_confirm</title>
<g id="a_edge7"><a xlink:href="5-proto.network.msg_confirm.html">
<path fill="none" stroke="black" stroke-width="5" stroke-dasharray="5,2" d="M325.549,-605.296C317.418,-590.445 305.895,-569.396 296.007,-551.334"/>
<polygon fill="black" stroke="black" stroke-width="5" points="303.611,-547.002 286.331,-533.661 288.26,-555.406 303.611,-547.002"/>
</a>
</g>
</g>
<!-- proto.network.received -->
<g id="node7" class="node"><title>proto.network.received</title>
<g id="a_node7"><a xlink:href="proto.network.received.html" xlink:title="proto.network.received">
<ellipse fill="none" stroke="black" cx="578" cy="-513.789" rx="130.63" ry="19.6"/>
<text text-anchor="middle" x="578" y="-509.389" font-family="Times New Roman,serif" font-size="18.00">proto.network.received</text>
</a>
</g>
</g>
<!-- proto.network.msg_send&#45;&gt;proto.network.received -->
<g id="edge6" class="edge"><title>proto.network.msg_send&#45;&gt;proto.network.received</title>
<g id="a_edge6"><a xlink:href="4-proto.network.received.html">
<path fill="none" stroke="black" stroke-width="5" d="M375.69,-606.412C414.908,-588.651 475.336,-561.284 519.945,-541.081"/>
<polygon fill="black" stroke="black" stroke-width="5" points="523.679,-548.996 538.288,-532.774 516.459,-533.054 523.679,-548.996"/>
</a>
</g>
</g>
<!-- proto.network.clock -->
<g id="node4" class="node"><title>proto.network.clock</title>
<ellipse fill="none" stroke="black" cx="356" cy="-740.583" rx="114.603" ry="19.6"/>
<text text-anchor="middle" x="356" y="-736.183" font-family="Times New Roman,serif" font-size="18.00">proto.network.clock</text>
</g>
<!-- proto.network.clock&#45;&gt;proto.network.msg_send -->
<g id="edge2" class="edge"><title>proto.network.clock&#45;&gt;proto.network.msg_send</title>
<g id="a_edge2"><a xlink:href="1-proto.network.msg_send.html">
<path fill="none" stroke="black" stroke-width="5" stroke-dasharray="5,2" d="M352.652,-720.636C349.984,-705.536 346.16,-683.892 342.849,-665.153"/>
<polygon fill="black" stroke="black" stroke-width="5" points="351.455,-663.568 339.358,-645.395 334.222,-666.613 351.455,-663.568"/>
</a>
</g>
</g>
<!-- proto.network.confirmed -->
<g id="node5" class="node"><title>proto.network.confirmed</title>
<g id="a_node5"><a xlink:href="proto.network.confirmed.html" xlink:title="proto.network.confirmed">
<ellipse fill="none" stroke="black" cx="237" cy="-437.191" rx="139.1" ry="19.6"/>
<text text-anchor="middle" x="237" y="-432.791" font-family="Times New Roman,serif" font-size="18.00">proto.network.confirmed</text>
</a>
</g>
</g>
<!-- proto.network.confirmed&#45;&gt;proto.network.messages -->
<g id="edge5" class="edge"><title>proto.network.confirmed&#45;&gt;proto.network.messages</title>
<g id="a_edge5"><a xlink:href="3-proto.network.messages.html" xlink:title=" +/&#45;">
<path fill="none" stroke="black" stroke-width="5" d="M168.697,-454.468C147.869,-462.838 127.05,-475.361 114,-493.99 74.4081,-550.509 77.1789,-633.354 84.638,-686.881"/>
<polygon fill="black" stroke="black" stroke-width="5" points="90.9056,-722.461 78.5723,-704.325 87.201,-712.959 85.4661,-703.111 87.4358,-702.764 89.4055,-702.417 91.1404,-712.265 96.2993,-701.203 90.9056,-722.461 90.9056,-722.461"/>
<ellipse fill="none" stroke="black" stroke-width="5" cx="86.0479" cy="-694.885" rx="8" ry="8"/>
</a>
</g>
<g id="a_edge5&#45;label"><a xlink:href="3-proto.network.messages.html" xlink:title=" +/&#45;">
<text text-anchor="middle" x="102.5" y="-565.188" font-family="Times New Roman,serif" font-size="18.00"> +/&#45;</text>
</a>
</g>
</g>
<!-- proto.network.msg_confirm&#45;&gt;proto.network.confirmed -->
<g id="edge4" class="edge"><title>proto.network.msg_confirm&#45;&gt;proto.network.confirmed</title>
<g id="a_edge4"><a xlink:href="2-proto.network.confirmed.html">
<path fill="none" stroke="black" stroke-width="5" d="M266.159,-493.965C263.11,-488.134 259.64,-481.497 256.184,-474.885"/>
<polygon fill="black" stroke="black" stroke-width="5" points="263.859,-470.679 246.838,-457.009 248.35,-478.787 263.859,-470.679"/>
</a>
</g>
</g>
<!-- proto.messages -->
<g id="node10" class="node"><title>proto.messages</title>
<g id="a_node10"><a xlink:href="proto.messages.html" xlink:title="proto.messages">
<ellipse fill="none" stroke="black" cx="517" cy="-437.191" rx="89.191" ry="19.6"/>
<text text-anchor="middle" x="517" y="-432.791" font-family="Times New Roman,serif" font-size="18.00">proto.messages</text>
</a>
</g>
</g>
<!-- proto.network.received&#45;&gt;proto.messages -->
<g id="edge9" class="edge"><title>proto.network.received&#45;&gt;proto.messages</title>
<g id="a_edge9"><a xlink:href="1-proto.messages.html">
<path fill="none" stroke="black" stroke-width="5" d="M562.607,-493.965C557.22,-487.377 550.992,-479.761 544.903,-472.315"/>
<polygon fill="black" stroke="black" stroke-width="5" points="551.611,-466.694 532.177,-456.751 538.063,-477.772 551.611,-466.694"/>
</a>
</g>
</g>
<!-- proto.ifaces -->
<g id="node8" class="node"><title>proto.ifaces</title>
<g id="a_node8"><a xlink:href="proto.ifaces.html" xlink:title="proto.ifaces">
<polygon fill="none" stroke="black" points="710.5,-587.588 609.5,-587.588 609.5,-551.588 710.5,-551.588 710.5,-587.588"/>
<text text-anchor="middle" x="660" y="-565.188" font-family="Times New Roman,serif" font-size="18.00">proto.ifaces</text>
</a>
</g>
</g>
<!-- proto.ifaces&#45;&gt;proto.network.push -->
<g id="edge13" class="edge"><title>proto.ifaces&#45;&gt;proto.network.push</title>
<g id="a_edge13"><a xlink:href="5-proto.network.push.html">
<path fill="none" stroke="black" stroke-width="5" d="M710.628,-559.306C779.972,-545.123 896,-515.492 896,-475.99 896,-475.99 896,-475.99 896,-95.397 896,-66.3963 874.053,-48.6478 846.466,-37.7934"/>
<polygon fill="black" stroke="black" stroke-width="5" points="848.916,-29.3884 827.185,-31.4671 843.46,-46.0162 848.916,-29.3884"/>
</a>
</g>
</g>
<!-- proto.set_ipport -->
<g id="node9" class="node"><title>proto.set_ipport</title>
<ellipse fill="none" stroke="black" cx="545" cy="-682.985" rx="92.7622" ry="19.6"/>
<text text-anchor="middle" x="545" y="-678.585" font-family="Times New Roman,serif" font-size="18.00">proto.set_ipport</text>
</g>
<!-- proto.set_ipport&#45;&gt;proto.ifaces -->
<g id="edge8" class="edge"><title>proto.set_ipport&#45;&gt;proto.ifaces</title>
<g id="a_edge8"><a xlink:href="0-proto.ifaces.html">
<path fill="none" stroke="black" stroke-width="5" d="M563.99,-663.59C581.274,-646.847 607.151,-621.781 627.687,-601.889"/>
<polygon fill="black" stroke="black" stroke-width="5" points="633.841,-608.11 642.118,-587.91 621.665,-595.54 633.841,-608.11"/>
</a>
</g>
</g>
<!-- proto.r_server_connect -->
<g id="node11" class="node"><title>proto.r_server_connect</title>
<g id="a_node11"><a xlink:href="proto.r_server_connect.html" xlink:title="proto.r_server_connect">
<ellipse fill="none" stroke="black" cx="737" cy="-360.593" rx="130.63" ry="19.6"/>
<text text-anchor="middle" x="737" y="-356.193" font-family="Times New Roman,serif" font-size="18.00">proto.r_server_connect</text>
</a>
</g>
</g>
<!-- proto.messages&#45;&gt;proto.r_server_connect -->
<g id="edge10" class="edge"><title>proto.messages&#45;&gt;proto.r_server_connect</title>
<g id="a_edge10"><a xlink:href="2-proto.r_server_connect.html">
<path fill="none" stroke="black" stroke-width="5" d="M563.926,-420.279C593.885,-410.121 633.273,-396.765 666.903,-385.361"/>
<polygon fill="black" stroke="black" stroke-width="5" points="669.794,-393.621 685.925,-378.912 664.174,-377.048 669.794,-393.621"/>
</a>
</g>
</g>
<!-- proto.r_user_connect -->
<g id="node12" class="node"><title>proto.r_user_connect</title>
<g id="a_node12"><a xlink:href="proto.r_user_connect.html" xlink:title="proto.r_user_connect">
<ellipse fill="none" stroke="black" cx="205" cy="-360.593" rx="120.417" ry="19.6"/>
<text text-anchor="middle" x="205" y="-356.193" font-family="Times New Roman,serif" font-size="18.00">proto.r_user_connect</text>
</a>
</g>
</g>
<!-- proto.messages&#45;&gt;proto.r_user_connect -->
<g id="edge11" class="edge"><title>proto.messages&#45;&gt;proto.r_user_connect</title>
<g id="a_edge11"><a xlink:href="3-proto.r_user_connect.html">
<path fill="none" stroke="black" stroke-width="5" d="M458.315,-422.16C410.888,-410.82 343.481,-394.703 290.123,-381.946"/>
<polygon fill="black" stroke="black" stroke-width="5" points="291.919,-373.378 270.432,-377.238 287.849,-390.399 291.919,-373.378"/>
</a>
</g>
</g>
<!-- proto.r_user_message -->
<g id="node13" class="node"><title>proto.r_user_message</title>
<g id="a_node13"><a xlink:href="proto.r_user_message.html" xlink:title="proto.r_user_message">
<ellipse fill="none" stroke="black" cx="466" cy="-360.593" rx="122.159" ry="19.6"/>
<text text-anchor="middle" x="466" y="-356.193" font-family="Times New Roman,serif" font-size="18.00">proto.r_user_message</text>
</a>
</g>
</g>
<!-- proto.messages&#45;&gt;proto.r_user_message -->
<g id="edge12" class="edge"><title>proto.messages&#45;&gt;proto.r_user_message</title>
<g id="a_edge12"><a xlink:href="4-proto.r_user_message.html">
<path fill="none" stroke="black" stroke-width="5" d="M504.131,-417.367C499.903,-411.182 495.055,-404.091 490.265,-397.086"/>
<polygon fill="black" stroke="black" stroke-width="5" points="497.376,-391.983 478.865,-380.411 482.93,-401.86 497.376,-391.983"/>
</a>
</g>
</g>
<!-- new_peers -->
<g id="node17" class="node"><title>new_peers</title>
<g id="a_node17"><a xlink:href="new_peers.html" xlink:title="new_peers">
<ellipse fill="none" stroke="black" cx="539" cy="-283.995" rx="66.4361" ry="19.6"/>
<text text-anchor="middle" x="539" y="-279.595" font-family="Times New Roman,serif" font-size="18.00">new_peers</text>
</a>
</g>
</g>
<!-- proto.r_server_connect&#45;&gt;new_peers -->
<g id="edge18" class="edge"><title>proto.r_server_connect&#45;&gt;new_peers</title>
<g id="a_edge18"><a xlink:href="0-new_peers.html">
<path fill="none" stroke="black" stroke-width="5" d="M690.327,-342.009C662.605,-331.564 627.201,-318.225 597.608,-307.076"/>
<polygon fill="black" stroke="black" stroke-width="5" points="600.48,-298.808 578.679,-299.944 594.31,-315.184 600.48,-298.808"/>
</a>
</g>
</g>
<!-- proto.s_server_connect -->
<g id="node14" class="node"><title>proto.s_server_connect</title>
<ellipse fill="none" stroke="black" cx="737" cy="-96.397" rx="130.63" ry="19.6"/>
<text text-anchor="middle" x="737" y="-91.997" font-family="Times New Roman,serif" font-size="18.00">proto.s_server_connect</text>
</g>
<!-- proto.s_server_connect&#45;&gt;proto.network.push -->
<g id="edge14" class="edge"><title>proto.s_server_connect&#45;&gt;proto.network.push</title>
<g id="a_edge14"><a xlink:href="5-proto.network.push.html">
<path fill="none" stroke="black" stroke-width="5" d="M737,-76.5727C737,-71.4486 737,-65.7021 737,-59.8973"/>
<polygon fill="black" stroke="black" stroke-width="5" points="745.75,-59.6171 737,-39.6172 728.25,-59.6172 745.75,-59.6171"/>
</a>
</g>
</g>
<!-- proto.s_user_connect -->
<g id="node15" class="node"><title>proto.s_user_connect</title>
<g id="a_node15"><a xlink:href="proto.s_user_connect.html" xlink:title="proto.s_user_connect">
<ellipse fill="none" stroke="black" cx="467" cy="-96.397" rx="120.831" ry="19.6"/>
<text text-anchor="middle" x="467" y="-91.997" font-family="Times New Roman,serif" font-size="18.00">proto.s_user_connect</text>
</a>
</g>
</g>
<!-- proto.s_user_connect&#45;&gt;proto.network.push -->
<g id="edge15" class="edge"><title>proto.s_user_connect&#45;&gt;proto.network.push</title>
<g id="a_edge15"><a xlink:href="6-proto.network.push.html">
<path fill="none" stroke="black" stroke-width="5" d="M526.253,-79.0261C565.517,-68.1777 617.422,-53.8371 659.894,-42.1024"/>
<polygon fill="black" stroke="black" stroke-width="5" points="662.329,-50.5077 679.276,-36.7474 657.668,-33.6397 662.329,-50.5077"/>
</a>
</g>
</g>
<!-- proto.s_user_message -->
<g id="node16" class="node"><title>proto.s_user_message</title>
<ellipse fill="none" stroke="black" cx="1047" cy="-96.397" rx="123.073" ry="19.6"/>
<text text-anchor="middle" x="1047" y="-91.997" font-family="Times New Roman,serif" font-size="18.00">proto.s_user_message</text>
</g>
<!-- proto.s_user_message&#45;&gt;proto.network.push -->
<g id="edge16" class="edge"><title>proto.s_user_message&#45;&gt;proto.network.push</title>
<g id="a_edge16"><a xlink:href="7-proto.network.push.html">
<path fill="none" stroke="black" stroke-width="5" d="M989.874,-78.8167C965.369,-71.9174 936.367,-64.0335 910,-57.598 883.495,-51.1286 854.548,-44.7171 828.048,-39.1026"/>
<polygon fill="black" stroke="black" stroke-width="5" points="829.709,-30.5108 808.341,-34.9767 826.123,-47.6395 829.709,-30.5108"/>
</a>
</g>
</g>
<!-- new_peers&#45;&gt;proto.s_user_connect -->
<g id="edge21" class="edge"><title>new_peers&#45;&gt;proto.s_user_connect</title>
<g id="a_edge21"><a xlink:href="2-proto.s_user_connect.html" xlink:title=" +/&#45;">
<path fill="none" stroke="black" stroke-width="5" d="M518.107,-264.97C503.557,-251.066 485.178,-230.49 476,-208.196 466.682,-185.56 464.388,-158.156 464.445,-136.265"/>
<polygon fill="black" stroke="black" stroke-width="5" points="473.191,-136.526 465.136,-116.237 455.702,-135.923 473.191,-136.526"/>
</a>
</g>
<g id="a_edge21&#45;label"><a xlink:href="2-proto.s_user_connect.html" xlink:title=" +/&#45;">
<text text-anchor="middle" x="489.5" y="-185.796" font-family="Times New Roman,serif" font-size="18.00"> +/&#45;</text>
</a>
</g>
</g>
<!-- peers -->
<g id="node18" class="node"><title>peers</title>
<g id="a_node18"><a xlink:href="peers.html" xlink:title="peers">
<polygon fill="none" stroke="black" points="567.5,-208.196 512.5,-208.196 512.5,-172.196 567.5,-172.196 567.5,-208.196"/>
<text text-anchor="middle" x="540" y="-185.796" font-family="Times New Roman,serif" font-size="18.00">peers</text>
</a>
</g>
</g>
<!-- new_peers&#45;&gt;peers -->
<g id="edge19" class="edge"><title>new_peers&#45;&gt;peers</title>
<g id="a_edge19"><a xlink:href="1-peers.html" xlink:title=" +/&#45;">
<path fill="none" stroke="black" stroke-width="5" d="M539.207,-263.974C539.319,-253.733 539.46,-240.736 539.593,-228.568"/>
<polygon fill="black" stroke="black" stroke-width="5" points="548.345,-228.429 539.813,-208.335 530.846,-228.238 548.345,-228.429"/>
</a>
</g>
<g id="a_edge19&#45;label"><a xlink:href="1-peers.html" xlink:title=" +/&#45;">
<text text-anchor="middle" x="553.5" y="-231.796" font-family="Times New Roman,serif" font-size="18.00"> +/&#45;</text>
</a>
</g>
</g>
<!-- peers&#45;&gt;proto.s_user_connect -->
<g id="edge20" class="edge"><title>peers&#45;&gt;proto.s_user_connect</title>
<g id="a_edge20"><a xlink:href="2-proto.s_user_connect.html" xlink:title=" +/&#45;">
<path fill="none" stroke="black" stroke-width="5" d="M526.269,-171.929C517.383,-160.755 505.499,-145.81 494.706,-132.237"/>
<polygon fill="black" stroke="black" stroke-width="5" points="501.222,-126.374 481.925,-116.166 487.525,-137.266 501.222,-126.374"/>
</a>
</g>
<g id="a_edge20&#45;label"><a xlink:href="2-proto.s_user_connect.html" xlink:title=" +/&#45;">
<text text-anchor="middle" x="524.5" y="-139.796" font-family="Times New Roman,serif" font-size="18.00"> +/&#45;</text>
</a>
</g>
</g>
<!-- peers&#45;&gt;new_peers -->
<g id="edge17" class="edge"><title>peers&#45;&gt;new_peers</title>
<g id="a_edge17"><a xlink:href="0-new_peers.html">
<path fill="none" stroke="black" stroke-width="5" d="M538.242,-208.267C537.735,-213.962 537.25,-220.347 537,-226.196 536.975,-226.787 536.952,-227.382 536.931,-227.98"/>
<polygon fill="black" stroke="black" stroke-width="5" points="537.595,-264.059 528.228,-244.228 535.411,-254.098 535.227,-244.099 537.227,-244.063 539.227,-244.026 539.411,-254.024 546.225,-243.897 537.595,-264.059 537.595,-264.059"/>
<ellipse fill="none" stroke="black" stroke-width="5" cx="537.08" cy="-236.064" rx="8" ry="8"/>
</a>
</g>
</g>
<!-- S -->
<g id="node19" class="node"><title>S</title>
<g id="a_node19"><a xlink:href="javascript:advanceTo(-2)" xlink:title="S">
<polygon fill="none" stroke="blue" stroke-width="3" points="511,-853.382 484,-825.382 511,-797.382 538,-825.382 511,-853.382"/>
<text text-anchor="middle" x="511" y="-820.982" font-family="Times New Roman,serif" font-size="18.00">S</text>
</a>
</g>
</g>
<!-- S&#45;&gt;proto.network.clock -->
<g id="edge22" class="edge"><title>S&#45;&gt;proto.network.clock</title>
<path fill="none" stroke="blue" stroke-width="5" d="M493.521,-815.045C472.835,-803.994 437.449,-785.092 407.753,-769.229"/>
<polygon fill="blue" stroke="blue" stroke-width="5" points="411.491,-761.305 389.727,-759.6 403.246,-776.741 411.491,-761.305"/>
</g>
<!-- S&#45;&gt;proto.set_ipport -->
<g id="edge24" class="edge"><title>S&#45;&gt;proto.set_ipport</title>
<path fill="none" stroke="blue" stroke-width="5" d="M514.001,-800.19C516.517,-782.214 520.663,-756.827 530.546,-722.319"/>
<polygon fill="blue" stroke="blue" stroke-width="5" points="539.029,-724.497 536.455,-702.819 522.281,-719.422 539.029,-724.497"/>
</g>
<!-- heartbeat_timer -->
<g id="node23" class="node"><title>heartbeat_timer</title>
<ellipse fill="none" stroke="black" cx="632" cy="-740.583" rx="92.7622" ry="19.6"/>
<text text-anchor="middle" x="632" y="-736.183" font-family="Times New Roman,serif" font-size="18.00">heartbeat_timer</text>
</g>
<!-- S&#45;&gt;heartbeat_timer -->
<g id="edge23" class="edge"><title>S&#45;&gt;heartbeat_timer</title>
<path fill="none" stroke="blue" stroke-width="5" d="M526.261,-812.605C532.609,-807.794 540.095,-802.231 547,-797.382 559.812,-788.385 573.949,-778.925 586.954,-770.402"/>
<polygon fill="blue" stroke="blue" stroke-width="5" points="591.747,-777.723 603.758,-759.493 582.218,-763.045 591.747,-777.723"/>
</g>
<!-- T -->
<g id="node20" class="node"><title>T</title>
<g id="a_node20"><a xlink:href="javascript:advanceTo(0)" xlink:title="T">
<polygon fill="none" stroke="blue" stroke-width="3" points="583,-853.382 556,-825.382 583,-797.382 610,-825.382 583,-853.382"/>
<text text-anchor="middle" x="583" y="-820.982" font-family="Times New Roman,serif" font-size="18.00">T</text>
</a>
</g>
</g>
<!-- proto.mcast -->
<g id="node21" class="node"><title>proto.mcast</title>
<ellipse fill="none" stroke="black" cx="699" cy="-825.382" rx="71.3357" ry="19.6"/>
<text text-anchor="middle" x="699" y="-820.982" font-family="Times New Roman,serif" font-size="18.00">proto.mcast</text>
</g>
<!-- proto.heartbeat -->
<g id="node22" class="node"><title>proto.heartbeat</title>
<ellipse fill="none" stroke="black" cx="878" cy="-825.382" rx="89.6056" ry="19.6"/>
<text text-anchor="middle" x="878" y="-820.982" font-family="Times New Roman,serif" font-size="18.00">proto.heartbeat</text>
</g>
<!-- heartbeat_sendtimes -->
<g id="node24" class="node"><title>heartbeat_sendtimes</title>
<polygon fill="none" stroke="black" points="1150,-843.382 986,-843.382 986,-807.382 1150,-807.382 1150,-843.382"/>
<text text-anchor="middle" x="1068" y="-820.982" font-family="Times New Roman,serif" font-size="18.00">heartbeat_sendtimes</text>
</g>
<!-- dead_peers -->
<g id="node25" class="node"><title>dead_peers</title>
<ellipse fill="none" stroke="black" cx="1237" cy="-825.382" rx="69.0935" ry="19.6"/>
<text text-anchor="middle" x="1237" y="-820.982" font-family="Times New Roman,serif" font-size="18.00">dead_peers</text>
</g>
</g>
</svg>
